<svg width="49" height="50" viewBox="0 0 49 50" fill="none" xmlns="http://www.w3.org/2000/svg">
<g clip-path="url(#clip0_9_7192)">
<path d="M16.7081 0.398438C6.88078 0.398438 0.0322266 3.81104 0.0322266 6.8739C0.0322266 9.93675 6.88078 13.3494 16.7081 13.3494C26.5354 13.3494 33.384 9.93665 33.384 6.8739C33.384 3.81115 26.5355 0.398438 16.7081 0.398438Z" fill="#FFE492"/>
<path d="M0.0322266 36.6254V42.6819C0.0322266 45.7447 6.88078 49.1573 16.7081 49.1573C21.1126 49.1573 25.2699 48.4637 28.4143 47.2039C30.4638 46.3829 31.9806 45.3646 32.7702 44.3063C31.283 43.1428 29.5659 41.4698 28.0699 39.1616C24.7769 40.2159 20.8847 40.7691 16.7082 40.7691C11.4532 40.7691 6.53728 39.8639 2.86608 38.2199C1.79526 37.7405 0.848106 37.2061 0.0322266 36.6254H0.0322266Z" fill="#FFE492"/>
<path d="M0.0323307 24.7168L0.0322266 30.6907C0.0322266 33.7535 6.88078 37.1661 16.7081 37.1661C20.1934 37.1661 23.5375 36.729 26.339 35.9203C25.3231 33.5715 24.6663 30.9788 24.3766 28.1731C21.9802 28.6238 19.3687 28.859 16.7081 28.859C11.4192 28.859 6.48018 27.9434 2.80096 26.2809C1.75661 25.809 0.831227 25.2849 0.0323307 24.7168Z" fill="#FFE492"/>
<path d="M0.0322266 12.803V18.7809C0.0322266 21.8437 6.88078 25.2564 16.7081 25.2564C19.3365 25.2564 21.8988 25.0087 24.2054 24.5354C24.2086 23.9693 24.3775 22.496 25.7415 22.1216C27.891 21.5314 29.3951 20.1149 29.5282 18.1719C29.583 17.3719 30.584 16.251 31.3296 16.2622H33.3841V12.803C32.5851 13.3711 31.6601 13.8953 30.6159 14.3677C26.932 16.0343 21.9927 16.9522 16.7082 16.9522C11.4237 16.9522 6.48456 16.0343 2.80065 14.3677C1.75619 13.8953 0.831227 13.3711 0.0322266 12.803H0.0322266Z" fill="#FFE492"/>
<path d="M43.683 19.8652H32.9345C32.3336 22.3639 30.4123 24.4138 27.8135 25.3076C28.0156 37.3016 34.9097 41.875 37.9492 43.3089C38.123 43.3908 38.3289 43.3821 38.5002 43.2857C41.5515 41.5662 48.4699 36.4481 48.7919 25.3034C46.1995 24.4075 44.2831 22.3602 43.683 19.8652ZM37.6648 35.4845C36.9354 36.2347 35.6798 36.1936 35.0012 35.3972L31.5762 31.3783L34.3193 29.0416L36.4604 31.5542L42.4339 25.4102L45.018 27.9214L37.6648 35.4845Z" fill="#FFE492"/>
</g>
<defs>
<clipPath id="clip0_9_7192">
<rect width="48.7589" height="48.7589" fill="white" transform="translate(0.0322266 0.398438)"/>
</clipPath>
</defs>
</svg>
