<svg width="49" height="50" viewBox="0 0 49 50" fill="none" xmlns="http://www.w3.org/2000/svg">
<g clip-path="url(#clip0_9_7201)">
<path d="M44.2505 4.99417C38.1229 -1.13336 28.1527 -1.13326 22.0252 4.99417C17.8401 9.17925 16.3868 15.3483 18.1982 20.944L0.505704 38.6366C0.237721 38.9045 0.0871582 39.2679 0.0871582 39.6468V47.7288C0.0871582 48.5179 0.726834 49.1575 1.51583 49.1575H9.59782C9.97684 49.1575 10.3401 49.0069 10.6081 48.739L12.629 46.7181C12.9376 46.4094 13.0883 45.9765 13.0378 45.5429L12.7856 43.3732L15.7934 43.0897C16.4764 43.0253 17.0174 42.4845 17.0817 41.8015L17.3654 38.7933L19.5353 39.0454C19.9404 39.0928 20.3459 38.9644 20.6505 38.6933C20.9548 38.4222 21.129 38.034 21.129 37.6263V34.9657H23.7412C24.1173 34.9657 24.4782 34.8174 24.7457 34.5531L28.2952 31.0445C33.8922 32.8588 40.0643 31.4058 44.2506 27.2194C50.3779 21.092 50.3779 11.1216 44.2505 4.99417ZM42.23 25.199C38.624 28.805 33.2148 29.9306 28.4496 28.0669C27.9238 27.8613 27.3263 27.9845 26.9249 28.3813L23.1543 32.1083H19.7003C18.9113 32.1083 18.2716 32.748 18.2716 33.537V36.0219L16.245 35.7864C15.8632 35.7421 15.4798 35.8534 15.1811 36.0951C14.8825 36.3368 14.6937 36.6887 14.6576 37.0714L14.3478 40.3558L11.0636 40.6653C10.681 40.7014 10.3291 40.8901 10.0872 41.1888C9.84542 41.4875 9.7341 41.8711 9.77848 42.2528L10.1196 45.1863L9.00595 46.3002H2.94441V40.2388L20.8573 22.3259C21.2586 21.9246 21.3844 21.3238 21.1777 20.7952C19.3138 16.03 20.4395 10.621 24.0455 7.01481C29.0591 2.0014 37.2165 2.0014 42.2299 7.01481C47.2433 12.0281 47.2433 20.1856 42.23 25.199Z" fill="#4F9CF9"/>
<path d="M40.2086 9.03513C38.5375 7.36389 35.8182 7.36399 34.1472 9.03513C32.476 10.7063 32.476 13.4254 34.1472 15.0966C35.8182 16.7677 38.5375 16.7679 40.2086 15.0966C41.8797 13.4254 41.8797 10.7063 40.2086 9.03513ZM38.1881 13.0761C37.6311 13.6331 36.7248 13.6332 36.1677 13.0761C35.6107 12.5191 35.6107 11.6128 36.1677 11.0557C36.7262 10.4972 37.6297 10.4972 38.1881 11.0557C38.7466 11.6141 38.7465 12.5177 38.1881 13.0761Z" fill="#4F9CF9"/>
</g>
<defs>
<clipPath id="clip0_9_7201">
<rect width="48.7589" height="48.7589" fill="white" transform="translate(0.0871582 0.398438)"/>
</clipPath>
</defs>
</svg>
