<svg width="37" height="30" viewBox="0 0 37 30" fill="none" xmlns="http://www.w3.org/2000/svg">
<g clip-path="url(#clip0_9_7518)">
<path d="M0 2.70705V9.46C0 11.5167 2.50611 12.6137 4.03763 11.1739L11.3471 4.42099C12.9483 2.947 11.904 0.341797 9.71119 0.341797H2.40169C1.07902 0.341797 0 1.40444 0 2.70705Z" fill="white"/>
<path d="M34.5982 0.341797H27.2887C25.1307 0.341797 24.0517 2.947 25.6528 4.42099L32.9623 11.1739C34.4938 12.5794 36.9999 11.5167 36.9999 9.46V2.70705C36.9999 1.40444 35.9209 0.341797 34.5982 0.341797Z" fill="white"/>
<path d="M20.1533 16.8302L32.9624 28.6907C34.4939 30.0961 37 29.0335 37 26.9767V20.1552C37 19.5039 36.7215 18.8869 36.2342 18.4413L20.1533 3.52994C19.2135 2.67296 17.7865 2.67296 16.8467 3.52994L0.765757 18.4413C0.278457 18.8869 0 19.5039 0 20.1552V26.9767C0 29.0335 2.50611 30.1304 4.03763 28.6907L16.8467 16.8302C17.7865 15.9732 19.2135 15.9732 20.1533 16.8302Z" fill="white"/>
</g>
<defs>
<clipPath id="clip0_9_7518">
<rect width="37" height="29" fill="white" transform="translate(0 0.341797)"/>
</clipPath>
</defs>
</svg>
