<svg width="51" height="40" viewBox="0 0 51 40" fill="none" xmlns="http://www.w3.org/2000/svg">
<g clip-path="url(#clip0_9_7211)">
<path d="M0 3.63251V12.7141C0 15.48 3.45437 16.9552 5.56538 15.019L15.6406 5.93748C17.8476 3.95521 16.4083 0.45166 13.3857 0.45166H3.31044C1.4873 0.45166 0 1.88074 0 3.63251Z" fill="#5986EF"/>
<path d="M47.6895 0.45166H37.6143C34.6397 0.45166 33.1523 3.95521 35.3593 5.93748L45.4346 15.019C47.5456 16.9091 51 15.48 51 12.7141V3.63251C51 1.88074 49.5127 0.45166 47.6895 0.45166Z" fill="#5986EF"/>
<path d="M27.7789 22.6254L45.4346 38.5757C47.5456 40.4658 51 39.0367 51 36.2708V27.097C51 26.2211 50.6162 25.3914 49.9445 24.7921L27.7789 4.73887C26.4835 3.58639 24.5165 3.58639 23.2211 4.73887L1.0555 24.7921C0.383819 25.3914 0 26.2211 0 27.097V36.2708C0 39.0367 3.45437 40.5119 5.56538 38.5757L23.2211 22.6254C24.5165 21.4729 26.4835 21.4729 27.7789 22.6254Z" fill="#5986EF"/>
</g>
<defs>
<clipPath id="clip0_9_7211">
<rect width="51" height="39" fill="white" transform="translate(0 0.45166)"/>
</clipPath>
</defs>
</svg>
