<svg width="50" height="50" viewBox="0 0 50 50" fill="none" xmlns="http://www.w3.org/2000/svg">
<g clip-path="url(#clip0_9_7184)">
<path d="M39.0801 18.8463H35.6482V11.0153C35.6482 5.46121 31.0343 0.942627 25.3631 0.942627C19.6919 0.942627 15.078 5.46121 15.078 11.0153V18.8463H11.6531C8.50248 18.8463 5.93921 21.4096 5.93921 24.5602V43.9876C5.93921 47.1383 8.50248 49.7016 11.6531 49.7016H39.0801C42.2307 49.7016 44.794 47.1383 44.794 43.9876V24.5602C44.794 21.4096 42.2307 18.8463 39.0801 18.8463ZM18.8873 11.0153C18.8873 7.56165 21.7923 4.75192 25.3631 4.75192C28.9338 4.75192 31.8389 7.56165 31.8389 11.0153V18.8463H18.8873V11.0153ZM40.9847 43.9876C40.9847 45.0379 40.1303 45.8923 39.0801 45.8923H11.6531C10.6029 45.8923 9.7485 45.0379 9.7485 43.9876V24.5602C9.7485 23.51 10.6029 22.6556 11.6531 22.6556H39.0801C40.1303 22.6556 40.9847 23.51 40.9847 24.5602V43.9876Z" fill="#4F9CF9"/>
<path d="M25.3671 28.179C23.421 28.179 21.8435 29.7565 21.8435 31.7026C21.8435 32.9451 22.4873 34.0367 23.4589 34.6641V38.845C23.4589 39.8968 24.3116 40.7496 25.3636 40.7496C26.4154 40.7496 27.2682 39.8968 27.2682 38.845V34.6686C28.2438 34.0419 28.8907 32.9482 28.8907 31.7026C28.8907 29.7565 27.3132 28.179 25.3671 28.179Z" fill="#4F9CF9"/>
</g>
<defs>
<clipPath id="clip0_9_7184">
<rect width="48.7589" height="48.7589" fill="white" transform="translate(0.988037 0.942627)"/>
</clipPath>
</defs>
</svg>
