<svg width="50" height="49" viewBox="0 0 50 49" fill="none" xmlns="http://www.w3.org/2000/svg">
<path d="M22.8097 28.451C22.4196 28.451 22.0295 28.3024 21.7324 28.0045C21.1374 27.4095 21.1374 26.445 21.7324 25.85L31.6068 15.9756C32.2011 15.3805 33.1671 15.3805 33.7614 15.9756C34.3564 16.5706 34.3564 17.5351 33.7614 18.1301L23.8869 28.0045C23.5898 28.3024 23.1997 28.451 22.8097 28.451Z" fill="#FFE492"/>
<path d="M22.8091 28.4512C22.4191 28.4512 22.0297 28.3027 21.7319 28.0048L16.7539 23.0276C16.1589 22.4325 16.1589 21.468 16.7539 20.873C17.3481 20.278 18.3134 20.278 18.9084 20.873L23.8864 25.8502C24.4814 26.4453 24.4814 27.4098 23.8864 28.0048C23.5893 28.3027 23.1992 28.4512 22.8091 28.4512Z" fill="#FFE492"/>
<path d="M24.631 44.3174C24.4725 44.3174 24.3118 44.2923 24.1533 44.2405C14.4137 41.0277 7.87012 31.9784 7.87012 21.7215C7.87012 20.8804 8.55274 20.1978 9.39383 20.1978C10.2349 20.1978 10.9175 20.8804 10.9175 21.7215C10.9175 30.6596 16.6201 38.5464 25.1079 41.3462C25.9071 41.6098 26.3414 42.4715 26.0778 43.2706C25.8667 43.9114 25.271 44.3174 24.631 44.3174Z" fill="#FFE492"/>
<path d="M9.39383 23.2454C8.55274 23.2454 7.87012 22.5628 7.87012 21.7217V10.9422C7.87012 10.1011 8.55274 9.41846 9.39383 9.41846C10.2349 9.41846 10.9176 10.1011 10.9176 10.9422V21.7217C10.9176 22.5636 10.2349 23.2454 9.39383 23.2454Z" fill="#FFE492"/>
<path d="M9.39448 12.4662C8.64634 12.4662 7.99342 11.9146 7.88676 11.152C7.77096 10.3185 8.35226 9.54902 9.18649 9.43321C14.3336 8.71783 19.3017 7.17963 23.9536 4.8613C24.7071 4.48646 25.6221 4.79197 25.9969 5.54544C26.3725 6.29892 26.0655 7.21315 25.3128 7.58875C20.3645 10.0541 15.0802 11.6898 9.60552 12.4517C9.53466 12.4616 9.46381 12.4662 9.39448 12.4662Z" fill="#FFE492"/>
<path d="M24.6325 44.3177C23.9933 44.3177 23.3968 43.9116 23.1857 43.2709C22.9221 42.4717 23.3564 41.61 24.1556 41.3464C32.6434 38.5474 38.346 30.6606 38.346 21.7217C38.346 20.8806 39.0286 20.198 39.8697 20.198C40.7108 20.198 41.3934 20.8806 41.3934 21.7217C41.3934 31.9779 34.8498 41.028 25.1094 44.2407C24.951 44.2933 24.791 44.3177 24.6325 44.3177Z" fill="#FFE492"/>
<path d="M39.8704 23.2454C39.0293 23.2454 38.3467 22.5628 38.3467 21.7217V10.9422C38.3467 10.1011 39.0293 9.41846 39.8704 9.41846C40.7115 9.41846 41.3941 10.1011 41.3941 10.9422V21.7217C41.3941 22.5636 40.7115 23.2454 39.8704 23.2454Z" fill="#FFE492"/>
<path d="M39.8719 12.4662C39.8018 12.4662 39.7309 12.4616 39.6601 12.4517C34.1854 11.6898 28.9011 10.0541 23.9529 7.58875C23.2002 7.21315 22.8931 6.29892 23.2687 5.54544C23.6436 4.79197 24.5585 4.48646 25.312 4.8613C29.9639 7.17887 34.932 8.71783 40.0791 9.43321C40.9126 9.54902 41.4946 10.3193 41.3788 11.152C41.2737 11.9146 40.6208 12.4662 39.8719 12.4662Z" fill="#FFE492"/>
</svg>
