<svg width="105" height="18" viewBox="0 0 105 18" fill="none" xmlns="http://www.w3.org/2000/svg">
<path d="M2.5058 9.91715C2.44316 9.91715 1.06497 9.91715 0.438515 9.91715C0.104408 9.91715 0 9.79186 0 9.47863C0 8.64336 0 7.78722 0 6.95195C0 6.61784 0.12529 6.51343 0.438515 6.51343H2.5058C2.5058 6.45079 2.5058 5.23965 2.5058 4.67585C2.5058 3.84058 2.65197 3.04708 3.06961 2.31622C3.50812 1.56448 4.13457 1.06332 4.92807 0.770973C5.45012 0.583038 5.97216 0.499512 6.53596 0.499512H8.58237C8.87471 0.499512 9 0.624802 9 0.917145V3.29766C9 3.59 8.87471 3.71529 8.58237 3.71529C8.01856 3.71529 7.45476 3.71529 6.89095 3.73617C6.32715 3.73617 6.0348 4.00763 6.0348 4.59232C6.01392 5.21877 6.0348 5.82434 6.0348 6.47167H8.45708C8.79118 6.47167 8.91647 6.59696 8.91647 6.93107V9.45775C8.91647 9.79186 8.81207 9.89626 8.45708 9.89626C7.70534 9.89626 6.09745 9.89626 6.0348 9.89626V16.7037C6.0348 17.0587 5.93039 17.184 5.55452 17.184C4.67749 17.184 3.82135 17.184 2.94432 17.184C2.63109 17.184 2.5058 17.0587 2.5058 16.7455C2.5058 14.5529 2.5058 9.97979 2.5058 9.91715Z" fill="#F7F7EE"/>
<path d="M58 3.57073C57.3678 3.84805 56.6942 4.03186 55.9919 4.12111C56.7144 3.68973 57.2658 3.01186 57.5251 2.1948C56.8514 2.59642 56.1077 2.88011 55.3151 3.03842C54.6754 2.35736 53.7638 1.93555 52.7693 1.93555C50.8398 1.93555 49.2864 3.50167 49.2864 5.42161C49.2864 5.69786 49.3098 5.96348 49.3672 6.21636C46.4697 6.07505 43.9059 4.68636 42.1836 2.57092C41.8829 3.09261 41.7066 3.68973 41.7066 4.33255C41.7066 5.53955 42.3281 6.60948 43.2546 7.22892C42.6947 7.2183 42.1454 7.05573 41.68 6.79967C41.68 6.8103 41.68 6.82411 41.68 6.83792C41.68 8.53155 42.8881 9.9383 44.4722 10.2624C44.1886 10.3399 43.8794 10.3771 43.5585 10.3771C43.3354 10.3771 43.1101 10.3644 42.8987 10.3176C43.3503 11.6978 44.6316 12.7125 46.1553 12.7454C44.9695 13.673 43.4639 14.2319 41.8341 14.2319C41.5483 14.2319 41.2741 14.2191 41 14.184C42.5438 15.1796 44.3734 15.748 46.3465 15.748C52.7597 15.748 56.266 10.4355 56.266 5.83067C56.266 5.67661 56.2607 5.52786 56.2533 5.38017C56.9449 4.8893 57.5261 4.27623 58 3.57073Z" fill="#F7F7EE"/>
<path d="M104.996 16.3415V16.3408H105V10.8223C105 8.12261 104.425 6.04297 101.3 6.04297C99.7983 6.04297 98.7903 6.87558 98.3788 7.66492H98.3354V6.29501H95.373V16.3408H98.4577V11.3665C98.4577 10.0568 98.7034 8.79032 100.309 8.79032C101.891 8.79032 101.915 10.285 101.915 11.4505V16.3415H104.996Z" fill="#F7F7EE"/>
<path d="M90.2239 6.26758H93.3582V16.1183H90.2239V6.26758Z" fill="#F7F7EE"/>
<path d="M91.791 1.3418C90.8023 1.3418 90 2.14036 90 3.12449C90 4.10862 90.8023 4.92389 91.791 4.92389C92.7798 4.92389 93.5821 4.10862 93.5821 3.12449C93.5815 2.14036 92.7792 1.3418 91.791 1.3418V1.3418Z" fill="#F7F7EE"/>
</svg>
